<svg xmlns="http://www.w3.org/2000/svg" width="47.607" height="16.896" viewBox="0 0 47.607 16.896"><defs><style>.a{fill:#fff;}</style></defs><path class="a" d="M6.3,1.9h5.715L18.25,17.891H12.4l-.835-2.349H6.482l-.79,2.349H0ZM9.079,7.477,7.769,11.431h2.6Z" transform="translate(0 -1.448)"/><path class="a" d="M87.765,0a9.4,9.4,0,0,1,6.256,2.214l-3.3,3.975a3.174,3.174,0,0,0-2.642-1.2,3.22,3.22,0,0,0-3.23,3.456,3.273,3.273,0,0,0,5.872,2.123l3.3,3.954A8.715,8.715,0,0,1,87.765,16.9c-4.835,0-8.7-3.411-8.7-8.448C79.07,3.321,82.933,0,87.765,0Z" transform="translate(-60.249 0)"/><path class="a" d="M152.18,1.9h11V6.373h-5.941V7.751h5.58v4.178h-5.58v1.49h6.325v4.473H152.18Z" transform="translate(-115.956 -1.448)"/></svg>