<svg xmlns="http://www.w3.org/2000/svg" width="58.227" height="42.706" viewBox="0 0 58.227 42.706"><defs><style>.a{fill:#e6e7e8;}.b{fill:#fff;}.c{fill:#0a4d95;}</style></defs><g transform="translate(0 -0.323)"><path class="a" d="M42.1,41.156l.972-1.409a1.513,1.513,0,0,0,.22-1.317,1.722,1.722,0,0,0-1.045-1.077,2.219,2.219,0,0,0-2.259.386l-.571.516a2.834,2.834,0,0,1-1.438.667l-2.57.411a2.89,2.89,0,0,1-2.778-1.013,3.14,3.14,0,0,1-.33-3.152l.026-.06a4.689,4.689,0,0,1,3.208-2.533,2.438,2.438,0,0,1,1.281.017l.5.145a6.3,6.3,0,0,1,2.228,1.555,1.967,1.967,0,0,0,2.806-2.755l-.035-.038a8.531,8.531,0,0,0-3.2-2.146l-1.29-.488a6.234,6.234,0,0,0-2.788-.359l-2.631.253a.136.136,0,0,1-.124-.032c0-.01.016-.058.084-.093l3.036-1.6a7.69,7.69,0,0,1,2.688-.825,5.745,5.745,0,0,1,2.294.193l1.785.538a1.878,1.878,0,0,0,2.239-.526,1.407,1.407,0,0,0,.29-1.176,1.332,1.332,0,0,0-.729-.9l-2.21-1.106a6.653,6.653,0,0,0-4.045-.555l-.391.065a7.141,7.141,0,0,0-2.126.709L31.2,25.521a.235.235,0,0,1-.15.021.108.108,0,0,1,.047-.062l3.261-2.457a9.623,9.623,0,0,1,1.41-.88l1.217-.621a14.041,14.041,0,0,1,3.734-1.277l1.709-.327a1.962,1.962,0,0,0,1.643-1.738,1.388,1.388,0,0,0-.49-1.123,1.779,1.779,0,0,0-1.5-.356L40.5,17a18.324,18.324,0,0,0-4.871,1.648l-1.484.75a10.028,10.028,0,0,0-1.594,1l-2.472,1.92,3.3-3.842a1.4,1.4,0,0,0,.314-1.076,1.215,1.215,0,0,0-.523-.832,1.56,1.56,0,0,0-1.986.3c-1.261,1.383-5.467,5.992-6.64,7.213-.914.95-1.786,3.606-2.709,6.417a42.878,42.878,0,0,1-1.614,4.437,2.6,2.6,0,0,1-1.336,1.276A4.481,4.481,0,0,0,16.1,41.2l.358,1.774a5.123,5.123,0,0,0,5.086,3.9c.149,0,.3-.007.449-.019a.56.56,0,0,0,.068-.01l7.381-1.668a13.455,13.455,0,0,0,2.337-.423l5.391-1.022.172-.047c1.825-.5,3.715-1.012,4.759-2.525Zm0,0" transform="translate(-14.059 -14.061)"/><path class="a" d="M241.745,122.394a.477.477,0,0,0-.069,0l-7.566.14a13.418,13.418,0,0,0-2.375-.059l-5.487-.09-.18.011c-1.889.116-3.842.237-5.17,1.507l-1.237,1.183a1.506,1.506,0,0,0-.481,1.245,1.718,1.718,0,0,0,.8,1.266,2.218,2.218,0,0,0,2.29.078l.663-.389a2.829,2.829,0,0,1,1.544-.362l2.6.117a2.887,2.887,0,0,1,2.516,1.555,3.14,3.14,0,0,1-.315,3.155l-.036.052a4.69,4.69,0,0,1-3.654,1.832,2.418,2.418,0,0,1-1.25-.276l-.458-.243a6.3,6.3,0,0,1-1.867-1.973,1.967,1.967,0,0,0-3.306,2.13l.026.043a8.533,8.533,0,0,0,2.705,2.75l1.165.739a6.231,6.231,0,0,0,2.657.915l2.629.284a.145.145,0,0,1,.116.058.143.143,0,0,1-.1.074l-3.3.951a7.681,7.681,0,0,1-2.8.264,5.745,5.745,0,0,1-2.207-.653l-1.64-.888a1.882,1.882,0,0,0-2.3.062,1.41,1.41,0,0,0-.521,1.093,1.334,1.334,0,0,0,.531,1.033l1.941,1.53a6.66,6.66,0,0,0,3.85,1.362l.4.016a7.077,7.077,0,0,0,2.226-.264l4.317-1.221a.242.242,0,0,1,.152.01.11.11,0,0,1-.059.052l-3.691,1.746a9.684,9.684,0,0,1-1.559.576l-1.318.362a13.953,13.953,0,0,1-3.914.5l-1.74-.026h-.031a1.96,1.96,0,0,0-1.93,1.37,1.388,1.388,0,0,0,.254,1.2,1.777,1.777,0,0,0,1.4.652l1.615.028a18.311,18.311,0,0,0,5.1-.628l1.606-.434a9.94,9.94,0,0,0,1.764-.66l2.809-1.379-4,3.1a1.4,1.4,0,0,0-.525.99,1.213,1.213,0,0,0,.344.921,1.436,1.436,0,0,0,1.04.419,1.646,1.646,0,0,0,.966-.313c1.947-1.413,6.621-4.8,7.962-5.72a8.959,8.959,0,0,0,2.015-2.473c.145-.227,1.743-2.927,2.045-3.453l.142-.247c.134-.233.927-1.585,1.064-1.817a16.02,16.02,0,0,1,1.164-1.765,2.6,2.6,0,0,1,1.567-.979,4.479,4.479,0,0,0,3.73-4.317l.009-1.81a5.159,5.159,0,0,0-4.638-4.92Zm0,0" transform="translate(-188.155 -107.18)"/><path class="b" d="M4.089,28.591a4.019,4.019,0,0,1,2.5-4.44,3.082,3.082,0,0,0,1.578-1.51c1.278-2.662,2.842-9.28,4.235-10.727,1.138-1.183,5.062-5.482,6.65-7.223a1.073,1.073,0,0,1,1.35-.228.8.8,0,0,1,.1,1.2L16.4,10.45a.339.339,0,0,0-.034.424.4.4,0,0,0,.567.045l3.425-2.64a9.5,9.5,0,0,1,1.517-.954l1.485-.75a17.841,17.841,0,0,1,4.741-1.6l1.588-.3a1.079,1.079,0,0,1,1.414.983,1.475,1.475,0,0,1-1.248,1.276l-1.709.328a14.48,14.48,0,0,0-3.863,1.322L23.065,9.2a10.07,10.07,0,0,0-1.482.925l-3.262,2.457a.535.535,0,0,0-.194.656.6.6,0,0,0,.816.207l3.981-2.07a6.66,6.66,0,0,1,1.981-.66l.39-.065a6.158,6.158,0,0,1,3.747.51l2.21,1.105a.849.849,0,0,1,.273,1.343,1.381,1.381,0,0,1-1.67.373l-1.83-.551a6.219,6.219,0,0,0-2.49-.21,8.156,8.156,0,0,0-2.859.878l-3.036,1.6a.573.573,0,0,0-.309.708.593.593,0,0,0,.623.335l2.631-.253a5.733,5.733,0,0,1,2.569.329l1.29.488a8,8,0,0,1,3.021,2.023l.033.036a1.479,1.479,0,0,1-2.109,2.073,6.913,6.913,0,0,0-2.43-1.673l-.5-.146a2.948,2.948,0,0,0-1.537-.022,5.173,5.173,0,0,0-3.536,2.81l-.026.06a3.636,3.636,0,0,0,.381,3.63A3.35,3.35,0,0,0,23,27.308l2.571-.411a3.305,3.305,0,0,0,1.688-.787l.571-.515a1.736,1.736,0,0,1,1.752-.295,1.089,1.089,0,0,1,.6,1.663l-.972,1.409c-.974,1.41-2.856,1.884-4.659,2.375L19.2,31.761a13.111,13.111,0,0,1-2.323.419L9.463,33.855a4.667,4.667,0,0,1-5.017-3.49Zm0,0" transform="translate(-3.525 -3.505)"/><path class="c" d="M27.087,18.118l3.121-1.6a8.535,8.535,0,0,1,2.939-.881,6.543,6.543,0,0,1,2.56.211l1.881.553a1.443,1.443,0,0,0,1.717-.375.842.842,0,0,0-.281-1.348l-2.272-1.109a6.467,6.467,0,0,0-3.852-.512l-.4.065a6.978,6.978,0,0,0-2.037.662l-4.093,2.077a.619.619,0,0,1-.839-.208.528.528,0,0,1,.2-.658l3.354-2.465a10.4,10.4,0,0,1,1.523-.928l1.252-.623A15.152,15.152,0,0,1,35.83,9.65l1.757-.328A1.5,1.5,0,0,0,38.869,8.04c.024-.679-.649-1.134-1.453-.986l-1.632.3a18.666,18.666,0,0,0-4.874,1.609l-1.526.753a9.825,9.825,0,0,0-1.559.957L24.3,13.323a.421.421,0,0,1-.583-.045.334.334,0,0,1,.035-.426L27.7,8.366a1.2,1.2,0,0,0-.215.176c-1.631,1.747-5.667,6.061-6.836,7.248-1.431,1.453-3.04,8.093-4.354,10.765A3.134,3.134,0,0,1,14.67,28.07a4.019,4.019,0,0,0-2.57,4.455l.368,1.78a3.88,3.88,0,0,0,.205.662,5.138,5.138,0,0,0,3.949,1.373l7.621-1.681a13.815,13.815,0,0,0,2.388-.42l5.5-1.017c1.853-.493,3.789-.969,4.79-2.384l1-1.413a1.085,1.085,0,0,0-.62-1.669,1.818,1.818,0,0,0-1.8.3l-.587.517a3.436,3.436,0,0,1-1.735.789l-2.643.413A3.49,3.49,0,0,1,27.2,28.556a3.575,3.575,0,0,1-.392-3.643l.027-.061a5.3,5.3,0,0,1,3.635-2.82,3.1,3.1,0,0,1,1.58.022l.512.146a7.116,7.116,0,0,1,2.5,1.679A1.546,1.546,0,0,0,37,24.017a1.464,1.464,0,0,0,.225-2.219l-.035-.036a8.235,8.235,0,0,0-3.106-2.03l-1.326-.489a6.028,6.028,0,0,0-2.641-.33l-2.705.254a.614.614,0,0,1-.641-.336.57.57,0,0,1,.317-.712Zm0,0" transform="translate(-11.308 -5.988)"/><path class="c" d="M233.386,116.631a4.02,4.02,0,0,1-3.345,3.842,3.08,3.08,0,0,0-1.851,1.16c-1.79,2.349-4.66,8.513-6.316,9.649-1.354.929-6.067,4.345-7.973,5.729a1.072,1.072,0,0,1-1.369-.05.8.8,0,0,1,.14-1.2l4.988-3.857a.339.339,0,0,0,.12-.409.4.4,0,0,0-.546-.159l-3.889,1.893a9.485,9.485,0,0,1-1.678.627l-1.606.434a17.859,17.859,0,0,1-4.967.611l-1.615-.028c-.8-.014-1.346-.59-1.186-1.249a1.477,1.477,0,0,1,1.48-1l1.739.026a14.528,14.528,0,0,0,4.051-.513l1.319-.362a10.029,10.029,0,0,0,1.638-.605l3.691-1.746a.535.535,0,0,0,.323-.6.6.6,0,0,0-.757-.368l-4.318,1.221a6.7,6.7,0,0,1-2.074.246l-.4-.016a6.154,6.154,0,0,1-3.566-1.258l-1.941-1.53a.849.849,0,0,1,0-1.37,1.381,1.381,0,0,1,1.711-.028l1.68.91a6.217,6.217,0,0,0,2.4.71,8.125,8.125,0,0,0,2.978-.282l3.3-.951a.572.572,0,0,0,.445-.631.592.592,0,0,0-.543-.454l-2.628-.284a5.733,5.733,0,0,1-2.449-.842l-1.165-.738a7.991,7.991,0,0,1-2.549-2.592l-.026-.042a1.48,1.48,0,0,1,2.486-1.6,6.914,6.914,0,0,0,2.041,2.13l.459.243a2.94,2.94,0,0,0,1.5.332,5.175,5.175,0,0,0,4.031-2.038l.038-.053a3.635,3.635,0,0,0,.36-3.632,3.352,3.352,0,0,0-2.94-1.843l-2.6-.117a3.308,3.308,0,0,0-1.812.429l-.664.389a1.736,1.736,0,0,1-1.776-.066,1.09,1.09,0,0,1-.254-1.751l1.237-1.183c1.239-1.184,3.179-1.267,5.043-1.384l5.448.09a13.153,13.153,0,0,1,2.36.059l7.6-.141a4.666,4.666,0,0,1,4.207,4.433Zm0,0" transform="translate(-177.608 -96.64)"/><g transform="translate(0 0.323)"><path class="c" d="M26.089,25.145l.972-1.408a1.511,1.511,0,0,0,.22-1.317,1.721,1.721,0,0,0-1.045-1.077,2.216,2.216,0,0,0-2.258.386l-.572.516a2.838,2.838,0,0,1-1.439.667l-2.57.411a2.882,2.882,0,0,1-2.778-1.014,3.137,3.137,0,0,1-.332-3.149l.028-.062a4.689,4.689,0,0,1,3.208-2.533,2.434,2.434,0,0,1,1.28.017l.5.146a6.294,6.294,0,0,1,2.227,1.555,1.967,1.967,0,0,0,2.81-2.75L26.3,15.49a8.523,8.523,0,0,0-3.2-2.146l-1.29-.488a6.23,6.23,0,0,0-2.788-.359l-2.631.253a.137.137,0,0,1-.125-.032c0-.01.017-.058.084-.093l3.036-1.6a7.7,7.7,0,0,1,2.687-.825,5.756,5.756,0,0,1,2.294.193l1.785.538a1.882,1.882,0,0,0,2.24-.526,1.408,1.408,0,0,0,.29-1.175,1.334,1.334,0,0,0-.73-.9l-2.21-1.106a6.667,6.667,0,0,0-4.046-.555L21.3,6.73a7.141,7.141,0,0,0-2.126.709L15.193,9.508a.235.235,0,0,1-.151.021.108.108,0,0,1,.047-.062L18.351,7.01a9.653,9.653,0,0,1,1.41-.88l1.219-.621a13.986,13.986,0,0,1,3.733-1.277L26.421,3.9a1.965,1.965,0,0,0,1.643-1.739,1.388,1.388,0,0,0-.491-1.122,1.776,1.776,0,0,0-1.5-.356l-1.588.3a18.308,18.308,0,0,0-4.871,1.647l-1.485.75a9.994,9.994,0,0,0-1.594,1l-2.47,1.919,3.294-3.841a1.4,1.4,0,0,0,.315-1.076,1.213,1.213,0,0,0-.523-.833,1.561,1.561,0,0,0-1.986.3c-2.02,2.216-5.571,6.1-6.64,7.213-.913.95-1.786,3.607-2.71,6.419A42.889,42.889,0,0,1,4.2,18.925,2.6,2.6,0,0,1,2.866,20.2a4.481,4.481,0,0,0-2.78,4.981l.358,1.774a5.121,5.121,0,0,0,5.085,3.9c.149,0,.3-.007.45-.019a.539.539,0,0,0,.068-.01l7.381-1.668a13.444,13.444,0,0,0,2.338-.423l5.391-1.022.173-.047c1.826-.5,3.715-1.01,4.76-2.523Zm-5.016,1.581-5.528,1.06a12.7,12.7,0,0,1-2.237.4.5.5,0,0,0-.065.01L5.865,29.868a4.168,4.168,0,0,1-4.465-3.1L1.043,24.99a3.526,3.526,0,0,1,2.219-3.9,3.556,3.556,0,0,0,1.82-1.746,43.371,43.371,0,0,0,1.66-4.553c.809-2.464,1.726-5.257,2.486-6.047,1.078-1.12,4.634-5.012,6.659-7.232a.6.6,0,0,1,.715-.153.243.243,0,0,1,.108.169.418.418,0,0,1-.1.31L12.506,6.627a.816.816,0,0,0,.5,1.36.939.939,0,0,0,.7-.186l3.426-2.64a9.035,9.035,0,0,1,1.439-.9l1.485-.75a17.311,17.311,0,0,1,4.611-1.559l1.588-.3a.823.823,0,0,1,.684.137.421.421,0,0,1,.152.349,1.006,1.006,0,0,1-.852.815l-1.71.327a14.97,14.97,0,0,0-3.992,1.366l-1.219.621a10.609,10.609,0,0,0-1.553.97L14.5,8.688a1.015,1.015,0,0,0-.339,1.26.988.988,0,0,0,.587.5,1.156,1.156,0,0,0,.892-.078l3.981-2.069a6.184,6.184,0,0,1,1.837-.612l.391-.065a5.677,5.677,0,0,1,3.449.466L27.511,9.2a.373.373,0,0,1,.214.246.433.433,0,0,1-.106.36.9.9,0,0,1-1.053.247.447.447,0,0,0-.093-.04l-1.83-.551a6.727,6.727,0,0,0-2.685-.229,8.7,8.7,0,0,0-3.031.931l-3.036,1.6a1.06,1.06,0,0,0-.533,1.323,1.075,1.075,0,0,0,1.122.637l2.631-.253a5.246,5.246,0,0,1,2.35.3l1.29.488a7.585,7.585,0,0,1,2.87,1.935,1,1,0,0,1,.262.778.991.991,0,0,1-1.675.613,6.986,6.986,0,0,0-2.632-1.791l-.5-.146a3.422,3.422,0,0,0-1.792-.026,5.664,5.664,0,0,0-3.863,3.087l-.028.062a4.144,4.144,0,0,0,.433,4.109,3.821,3.821,0,0,0,3.724,1.408l2.57-.411a3.822,3.822,0,0,0,1.937-.905l.572-.515a1.258,1.258,0,0,1,1.247-.2.76.76,0,0,1,.47.454.545.545,0,0,1-.09.48l-.972,1.408c-.841,1.217-2.555,1.682-4.213,2.133Zm0,0" transform="translate(0 -0.323)"/><path class="c" d="M384.859,228.579a.488.488,0,0,0-.666.18l-.377.657c-.274.477-.589,1.027-.767,1.333a.488.488,0,1,0,.844.489c.178-.308.495-.859.769-1.337l.377-.655a.487.487,0,0,0-.18-.666Zm0,0" transform="translate(-336.296 -200.696)"/><path class="c" d="M225.748,106.4a.48.48,0,0,0-.069,0l-7.565.14a13.379,13.379,0,0,0-2.375-.059l-5.486-.09-.178.011c-1.89.116-3.844.237-5.171,1.507l-1.237,1.183a1.507,1.507,0,0,0-.481,1.245,1.722,1.722,0,0,0,.8,1.266,2.219,2.219,0,0,0,2.289.079l.665-.39a2.824,2.824,0,0,1,1.543-.362l2.6.117A2.885,2.885,0,0,1,213.6,112.6a3.138,3.138,0,0,1-.314,3.153l-.038.054a4.687,4.687,0,0,1-3.653,1.831,2.422,2.422,0,0,1-1.251-.276l-.458-.243a6.29,6.29,0,0,1-1.867-1.973,1.967,1.967,0,0,0-3.311,2.121l.031.052a8.527,8.527,0,0,0,2.7,2.75l1.166.739a6.233,6.233,0,0,0,2.657.915l2.629.284a.074.074,0,1,1,.014.131l-3.3.951a7.67,7.67,0,0,1-2.8.264,5.737,5.737,0,0,1-2.207-.653l-1.64-.888a1.881,1.881,0,0,0-2.3.061,1.409,1.409,0,0,0-.522,1.093,1.335,1.335,0,0,0,.532,1.033l1.941,1.53a6.654,6.654,0,0,0,3.85,1.362l.4.015a7.127,7.127,0,0,0,2.226-.264l4.317-1.221a.244.244,0,0,1,.152.01.108.108,0,0,1-.059.052l-3.691,1.746a9.664,9.664,0,0,1-1.559.576l-1.319.362a13.931,13.931,0,0,1-3.914.5l-1.739-.026h-.03a1.962,1.962,0,0,0-1.93,1.371,1.388,1.388,0,0,0,.254,1.2,1.778,1.778,0,0,0,1.4.652l1.615.029a18.3,18.3,0,0,0,5.1-.629l1.606-.434a9.953,9.953,0,0,0,1.763-.66l2.809-1.379-4,3.1a1.4,1.4,0,0,0-.525.991,1.213,1.213,0,0,0,.344.92,1.437,1.437,0,0,0,1.04.419,1.645,1.645,0,0,0,.966-.313c1.512-1.1,6.556-4.756,7.962-5.721a8.98,8.98,0,0,0,2.015-2.473.488.488,0,1,0-.822-.525,8.574,8.574,0,0,1-1.744,2.193c-1.417.972-6.469,4.636-7.984,5.736a.6.6,0,0,1-.731.006.244.244,0,0,1-.071-.188.421.421,0,0,1,.159-.284l4.989-3.857a.816.816,0,0,0-.217-1.433.938.938,0,0,0-.721.041l-3.89,1.892a9.1,9.1,0,0,1-1.592.6l-1.606.434a17.16,17.16,0,0,1-4.831.594l-1.615-.029a.822.822,0,0,1-.643-.273.419.419,0,0,1-.078-.372,1,1,0,0,1,.984-.626h.016l1.739.026a14.989,14.989,0,0,0,4.187-.53l1.319-.362a10.527,10.527,0,0,0,1.718-.636l3.691-1.746a1.014,1.014,0,0,0,.587-1.164.988.988,0,0,0-.473-.612,1.157,1.157,0,0,0-.89-.1L207.83,125.7a6.157,6.157,0,0,1-1.923.228l-.4-.015a5.678,5.678,0,0,1-3.283-1.154l-1.941-1.53a.373.373,0,0,1-.16-.284.436.436,0,0,1,.177-.331.9.9,0,0,1,1.08-.028.511.511,0,0,0,.084.057l1.68.91a6.729,6.729,0,0,0,2.584.767,8.679,8.679,0,0,0,3.157-.3l3.3-.951a1.06,1.06,0,0,0,.79-1.188,1.074,1.074,0,0,0-.97-.85l-2.629-.284a5.258,5.258,0,0,1-2.24-.769l-1.165-.739a7.6,7.6,0,0,1-2.419-2.475,1,1,0,0,1-.1-.816.977.977,0,0,1,.542-.608.989.989,0,0,1,1.222.346,6.972,6.972,0,0,0,2.216,2.287l.458.243a3.44,3.44,0,0,0,1.75.389,5.668,5.668,0,0,0,4.409-2.244l.038-.053a4.148,4.148,0,0,0,.408-4.112,3.826,3.826,0,0,0-3.363-2.132l-2.6-.117a3.824,3.824,0,0,0-2.08.5l-.664.389a1.257,1.257,0,0,1-1.262-.053.756.756,0,0,1-.369-.539.545.545,0,0,1,.185-.451l1.237-1.183c1.07-1.023,2.843-1.132,4.558-1.239l.14-.01,5.487.09a12.721,12.721,0,0,1,2.273.057.579.579,0,0,0,.065,0l7.563-.141a4.168,4.168,0,0,1,3.746,3.943l-.009,1.81a3.525,3.525,0,0,1-2.961,3.368,3.56,3.56,0,0,0-2.136,1.341,16.936,16.936,0,0,0-1.227,1.859.487.487,0,1,0,.838.5,16.089,16.089,0,0,1,1.164-1.766,2.609,2.609,0,0,1,1.567-.979,4.48,4.48,0,0,0,3.73-4.317l.009-1.81a5.159,5.159,0,0,0-4.638-4.917Zm0,0" transform="translate(-174.109 -93.457)"/></g></g></svg>