<svg xmlns="http://www.w3.org/2000/svg" xmlns:xlink="http://www.w3.org/1999/xlink" width="93.291" height="93.291" viewBox="0 0 93.291 93.291"><defs><style>.a{fill:#0a4d95;}.b{filter:url(#a);}</style><filter id="a" x="0" y="0" width="93.291" height="93.291" filterUnits="userSpaceOnUse"><feOffset dy="3" input="SourceAlpha"/><feGaussianBlur stdDeviation="3" result="b"/><feFlood flood-opacity="0.161"/><feComposite operator="in" in2="b"/><feComposite in="SourceGraphic"/></filter></defs><g transform="translate(9 6)"><g class="b" transform="matrix(1, 0, 0, 1, -9, -6)"><path class="a" d="M80.291,42.082A37.023,37.023,0,0,1,25.463,74.195L5,80.7l6.672-19.678a36.29,36.29,0,0,1-5.3-18.937,36.963,36.963,0,0,1,73.923,0M43.33,11.247A30.99,30.99,0,0,0,12.255,42.082a30.512,30.512,0,0,0,5.92,18.079L14.292,71.612l11.942-3.8a30.917,30.917,0,1,0,17.1-56.57M61.995,50.529c-.228-.374-.832-.6-1.737-1.049s-5.362-2.625-6.191-2.923-1.436-.451-2.04.448-2.34,2.924-2.869,3.524-1.057.677-1.963.227a24.789,24.789,0,0,1-7.285-4.462,27.1,27.1,0,0,1-5.04-6.224c-.528-.9-.055-1.385.4-1.833.408-.4.907-1.05,1.359-1.574a6.025,6.025,0,0,0,.905-1.5,1.638,1.638,0,0,0-.075-1.575c-.226-.449-2.04-4.873-2.794-6.672s-1.508-1.5-2.038-1.5-1.133-.075-1.737-.075a3.344,3.344,0,0,0-2.417,1.124,10.053,10.053,0,0,0-3.17,7.5c0,4.424,3.245,8.7,3.7,9.3s6.266,9.972,15.477,13.572,9.211,2.4,10.873,2.246S60.709,56.9,61.467,54.8a7.494,7.494,0,0,0,.528-4.276" transform="translate(4 0.59)"/></g></g></svg>