<svg xmlns="http://www.w3.org/2000/svg" width="103.733" height="85.024" viewBox="0 0 103.733 85.024"><defs><style>.a{fill:#b6def3;}.b{fill:#0a4d95;}</style></defs><g transform="translate(-7.743 -6.464)"><path class="a" d="M110.964,29.233a.145.145,0,0,0-.276.09c2.145,7.358,8.039,23.713-3.856,41.362C94.041,89.664,73.52,94.674,58.843,85.751,46.784,78.421,45.889,70.3,44.937,62.781c-.135-1.07,1.469-1.407,1.92-.428a47.213,47.213,0,0,0,2.584,4.96c4.949,8.844,15.645,12.357,23.792,11.626,16.529-1.486,24.946-14.294,25.329-30.03.141-5.849-.394-19.862-18.708-29.551C58.269,7.952,30.75,22.269,22.288,43.065c-4.335,10.663-6.142,24.27.957,38.868a.145.145,0,0,0,.276-.09C21.376,74.486,16.343,57.652,28.239,40,41.03,21.019,62.1,15.536,76.785,24.453c12.059,7.33,12.47,16.118,13.348,23.443.129,1.075-1.469,1.407-1.92.428a47.212,47.212,0,0,0-2.584-4.96c-4.949-8.844-16.3-12.639-24.388-11.429C49.058,33.759,37.928,45.368,36.684,58.609c-.315,3.344.225,23.026,18.539,32.709,21.585,11.417,49.1-2.9,57.559-23.7C117.117,56.96,118.057,43.831,110.964,29.233Z" transform="translate(-4.689 -3.872)"/><path class="b" d="M100.228,20.373a.145.145,0,0,0-.276.09c2.145,7.358,8.039,23.713-3.856,41.362C83.305,80.8,62.784,85.814,48.107,76.891,36.048,69.561,35.153,61.443,34.2,53.921c-.135-1.07,1.469-1.407,1.92-.428a47.213,47.213,0,0,0,2.584,4.96C43.654,67.3,54.351,70.811,62.5,70.079c16.529-1.486,24.946-14.294,25.329-30.03.141-5.849-.394-19.862-18.708-29.551C47.533-.908,20.02,13.409,11.558,34.205c-4.335,10.663-6.142,24.27.957,38.868a.145.145,0,0,0,.276-.09c-2.145-7.358-7.178-24.191,4.718-41.847C30.295,12.153,51.373,6.67,66.05,15.593,78.109,22.923,78.52,31.711,79.4,39.036c.129,1.075-1.469,1.407-1.92.428a47.213,47.213,0,0,0-2.584-4.96c-4.949-8.844-16.3-12.639-24.388-11.429C38.323,24.9,27.192,36.508,25.948,49.744c-.315,3.344.225,23.026,18.539,32.709,21.585,11.417,49.1-2.9,57.559-23.7C106.387,48.1,107.327,34.971,100.228,20.373Z" transform="translate(0)"/></g></svg>