<svg xmlns="http://www.w3.org/2000/svg" width="160.264" height="131.36" viewBox="0 0 160.264 131.36"><defs><style>.a{fill:#b6e3ef;}.b{fill:#0a4d95;}</style></defs><path class="a" d="M161.369,36.813a.225.225,0,0,0-.426.139c3.314,11.368,12.421,36.636-5.958,63.9-19.762,29.321-51.466,37.062-74.141,23.276-18.631-11.325-20.014-23.867-21.484-35.488-.209-1.653,2.27-2.174,2.966-.661a72.941,72.941,0,0,0,3.992,7.663c7.646,13.664,24.172,19.092,36.758,17.961,25.537-2.3,38.541-22.084,39.132-46.395.217-9.037-.609-30.686-28.9-45.656-33.348-17.622-75.863,4.5-88.937,36.627-6.7,16.474-9.489,37.5,1.479,60.051a.225.225,0,0,0,.426-.139c-3.314-11.368-11.09-37.375,7.289-64.652,19.762-29.321,52.318-37.793,75-24.015,18.631,11.325,19.266,24.9,20.623,36.218.2,1.661-2.27,2.174-2.966.661a72.94,72.94,0,0,0-3.992-7.663c-7.645-13.664-25.181-19.527-37.68-17.657C65.726,43.806,48.531,61.741,46.608,82.2c-.487,5.167.348,35.575,28.642,50.535,33.348,17.639,75.864-4.479,88.928-36.61C170.876,79.651,172.328,59.367,161.369,36.813Z" transform="translate(-9.14 -7.617)"/><path class="b" d="M150.63,27.953a.225.225,0,0,0-.426.139c3.314,11.368,12.421,36.636-5.958,63.9C124.484,121.317,92.78,129.058,70.1,115.272,51.474,103.947,50.091,91.4,48.621,79.784c-.209-1.653,2.27-2.174,2.966-.661a72.942,72.942,0,0,0,3.992,7.663c7.645,13.664,24.172,19.092,36.758,17.961,25.537-2.3,38.541-22.084,39.132-46.395.217-9.037-.609-30.686-28.9-45.656-33.348-17.622-75.855,4.5-88.928,36.627-6.7,16.474-9.489,37.5,1.479,60.051a.225.225,0,0,0,.426-.139C12.229,97.867,4.453,71.86,22.831,44.584,42.584,15.254,75.15,6.782,97.825,20.569c18.631,11.325,19.266,24.9,20.623,36.218.2,1.661-2.27,2.174-2.966.661a72.942,72.942,0,0,0-3.992-7.663C103.844,36.12,86.309,30.258,73.81,32.128c-18.822,2.818-36.018,20.753-37.94,41.2-.487,5.167.348,35.575,28.642,50.535,33.348,17.639,75.863-4.479,88.928-36.61C160.146,70.791,161.6,50.507,150.63,27.953Z" transform="translate(-7.743 -6.464)"/></svg>