<svg xmlns="http://www.w3.org/2000/svg" xmlns:xlink="http://www.w3.org/1999/xlink" width="68.386" height="60.999" viewBox="0 0 68.386 60.999"><defs><style>.a{fill:#0a4d95;}.b{filter:url(#a);}</style><filter id="a" x="0" y="0" width="68.386" height="60.999" filterUnits="userSpaceOnUse"><feOffset dy="3" input="SourceAlpha"/><feGaussianBlur stdDeviation="3" result="b"/><feFlood flood-opacity="0.161"/><feComposite operator="in" in2="b"/><feComposite in="SourceGraphic"/></filter></defs><g class="b" transform="matrix(1, 0, 0, 1, 0, 0)"><path class="a" d="M53.562,43.333S45.6,29.158,28.213,29.158c-.324,0-.643.006-.961.016l-1.517-7.133-2.328.495,1.448,6.805A29.487,29.487,0,0,0,3.176,43.229,27.682,27.682,0,0,0,7.51,49.062L6.3,43.357l-.039-.068a16.976,16.976,0,0,1,1.484-2.007L9.871,51.291a29.031,29.031,0,0,0,2.9,2.171L9.727,39.178a26.729,26.729,0,0,1,2.056-1.757l3.753,17.642a26.755,26.755,0,0,0,2.68,1.163L13.9,35.948c.7-.44,1.458-.864,2.265-1.262L20.93,57.069q1.226.312,2.542.515l-1.813-8.521a8.728,8.728,0,0,0,3.034,2.353l1.371,6.442c.568.033,1.146.054,1.737.054.237,0,.471,0,.706-.011l-1.222-5.739a8.82,8.82,0,0,0,1.086.069,8.717,8.717,0,0,0,1.334-.1L32.453,65.04l2.326-.495-1.518-7.139C46.792,54.823,53.562,43.333,53.562,43.333Zm-33.571-2.1-1.6-7.516c.751-.287,1.542-.547,2.368-.775l1.044,4.91a8.673,8.673,0,0,0-1.813,3.381ZM23.867,36.1l-.787-3.7c.759-.138,1.544-.249,2.358-.326l.653,3.069a8.625,8.625,0,0,0-2.225.952Zm4.594-1.254-.617-2.895c.129,0,.258,0,.388,0,.568,0,1.123.017,1.67.048a11.684,11.684,0,0,1,2.7,22.3l-.609-2.866a8.689,8.689,0,0,0-3.531-16.588ZM38.693,52.905a14.161,14.161,0,0,0-.314-19.078,26.362,26.362,0,0,1,12.1,9.545,28.453,28.453,0,0,1-11.788,9.533Z" transform="translate(5.82 -16.04)"/></g></svg>