<svg xmlns="http://www.w3.org/2000/svg" width="46.91" height="46.91" viewBox="0 0 46.91 46.91"><defs><style>.a{fill:#0a4d95;}</style></defs><path class="a" d="M51.91,28.257A23.067,23.067,0,0,1,17.75,48.265L5,52.316l4.157-12.26a22.61,22.61,0,0,1-3.3-11.8,23.03,23.03,0,0,1,46.058,0M28.881,9.045A19.308,19.308,0,0,0,9.52,28.257a19.01,19.01,0,0,0,3.688,11.264l-2.419,7.134,7.44-2.365A19.263,19.263,0,1,0,28.881,9.045M40.51,33.52c-.142-.233-.518-.374-1.082-.654s-3.341-1.636-3.857-1.821-.895-.281-1.271.279-1.458,1.822-1.788,2.2-.658.422-1.223.141a15.445,15.445,0,0,1-4.539-2.78A16.887,16.887,0,0,1,23.61,27c-.329-.56-.034-.863.248-1.142.254-.251.565-.654.847-.981a3.754,3.754,0,0,0,.564-.935,1.021,1.021,0,0,0-.047-.981c-.141-.28-1.271-3.036-1.741-4.157s-.94-.935-1.27-.935-.706-.047-1.082-.047a2.083,2.083,0,0,0-1.506.7A6.263,6.263,0,0,0,17.648,23.2c0,2.756,2.022,5.419,2.3,5.793s3.9,6.213,9.643,8.456,5.739,1.493,6.774,1.4,3.339-1.355,3.811-2.662a4.669,4.669,0,0,0,.329-2.664" transform="translate(-5 -5.406)"/></svg>